<svg width="20" height="21" viewBox="0 0 20 21" fill="none" xmlns="http://www.w3.org/2000/svg">
<mask id="mask0_10159_73459" style="mask-type:alpha" maskUnits="userSpaceOnUse" x="0" y="0" width="20" height="21">
<rect y="0.5" width="20" height="20" fill="#D9D9D9"/>
</mask>
<g mask="url(#mask0_10159_73459)">
<path d="M10 12.7758L12.9487 9.82708H7.05133L10 12.7758ZM10.0014 18.4168C8.90647 18.4168 7.87728 18.209 6.91383 17.7935C5.95037 17.3779 5.1123 16.8139 4.39962 16.1016C3.68693 15.3892 3.12271 14.5515 2.70698 13.5885C2.29124 12.6255 2.08337 11.5965 2.08337 10.5015C2.08337 9.40659 2.29115 8.3774 2.70671 7.41395C3.12226 6.4505 3.68622 5.61243 4.39858 4.89975C5.11096 4.18705 5.94866 3.62284 6.91169 3.2071C7.8747 2.79136 8.90368 2.5835 9.99862 2.5835C11.0936 2.5835 12.1228 2.79127 13.0862 3.20683C14.0497 3.62239 14.8877 4.18634 15.6004 4.8987C16.3131 5.61108 16.8773 6.44878 17.2931 7.41181C17.7088 8.37482 17.9167 9.4038 17.9167 10.4987C17.9167 11.5937 17.7089 12.6229 17.2933 13.5863C16.8778 14.5498 16.3138 15.3879 15.6015 16.1005C14.8891 16.8132 14.0514 17.3774 13.0884 17.7932C12.1253 18.2089 11.0964 18.4168 10.0014 18.4168ZM10 17.1668C11.8611 17.1668 13.4375 16.521 14.7292 15.2293C16.0209 13.9376 16.6667 12.3613 16.6667 10.5001C16.6667 8.63903 16.0209 7.06264 14.7292 5.77098C13.4375 4.47931 11.8611 3.83348 10 3.83348C8.13891 3.83348 6.56252 4.47931 5.27085 5.77098C3.97919 7.06264 3.33335 8.63903 3.33335 10.5001C3.33335 12.3613 3.97919 13.9376 5.27085 15.2293C6.56252 16.521 8.13891 17.1668 10 17.1668Z" fill="white"/>
</g>
</svg>
