<svg width="20" height="28" viewBox="0 0 20 28" fill="none" xmlns="http://www.w3.org/2000/svg">
<path d="M6.35768 8.40972L9.13318 18.2158L13.538 10.8781H9.12432V8.40906H14.2708L4.09889 1.32268C3.6942 1.04111 3.22949 0.883926 2.75223 0.867211C2.27498 0.850496 1.80229 0.974833 1.38244 1.22752C0.966034 1.4763 0.6178 1.84537 0.37448 2.29577C0.13116 2.74617 0.00177771 3.26121 0 3.78651V19.3372L3.09675 8.40315L6.35768 8.40972Z" fill="white"/>
<path d="M18.7618 11.5389L16.8721 10.2266L12.002 18.3254H16.1062L18.7635 16.4757C19.1416 16.2155 19.4537 15.8524 19.6701 15.4207C19.8865 14.989 20 14.5031 20 14.0089C20 13.5148 19.8865 13.0288 19.6701 12.5971C19.4537 12.1654 19.1416 11.8023 18.7635 11.5421L18.7618 11.5389Z" fill="white"/>
<path d="M4.63755 10.9727L2.35455 20.8221H0.00305176V24.2137C0.00470295 24.7391 0.134018 25.2541 0.377352 25.7046C0.620685 26.155 0.968994 26.524 1.38548 26.7727C1.80534 27.0253 2.27798 27.1496 2.7552 27.133C3.23241 27.1164 3.69712 26.9595 4.10193 26.6782L12.5141 20.8195H7.01325L4.63755 10.9727ZM4.72849 20.8221C4.49078 20.8183 4.25936 20.7366 4.06333 20.5871C3.86731 20.4377 3.71542 20.2272 3.62675 19.9821C3.53808 19.737 3.5166 19.4682 3.565 19.2096C3.61339 18.951 3.72951 18.714 3.89876 18.5285C4.06801 18.343 4.28283 18.2172 4.51622 18.167C4.74962 18.1167 4.99119 18.1443 5.21054 18.2461C5.4299 18.3479 5.61727 18.5196 5.7491 18.7394C5.88093 18.9592 5.95134 19.2174 5.95148 19.4816C5.9504 19.6588 5.91791 19.8341 5.85586 19.9974C5.79381 20.1607 5.70343 20.3088 5.58986 20.4333C5.4763 20.5577 5.34178 20.6562 5.19398 20.7229C5.04619 20.7896 4.88801 20.8233 4.72849 20.8221Z" fill="white"/>
</svg>
