<svg width="120" height="33" viewBox="0 0 120 33" fill="none" xmlns="http://www.w3.org/2000/svg">
<path d="M7.98247 9.47198L11.4673 21.7842L16.9978 12.5712H11.4562V9.47115H17.9179L5.14642 0.573736C4.6383 0.220208 4.05483 0.0228558 3.45561 0.00186863C2.85639 -0.0191186 2.26289 0.136995 1.73574 0.454264C1.21292 0.766614 0.775688 1.23 0.470184 1.79551C0.16468 2.36102 0.00223203 3.00768 0 3.66724V23.1921L3.88818 9.46373L7.98247 9.47198Z" fill="#FF2D55"/>
<path d="M23.5565 13.3957L21.1838 11.748L15.0691 21.9166H20.2222L23.5587 19.5942C24.0334 19.2676 24.4252 18.8117 24.6969 18.2696C24.9686 17.7276 25.1112 17.1175 25.1112 16.497C25.1112 15.8766 24.9686 15.2665 24.6969 14.7244C24.4252 14.1824 24.0334 13.7265 23.5587 13.3998L23.5565 13.3957Z" fill="#FF2D55"/>
<path d="M5.82281 12.688L2.95636 25.0546H0.00390625V29.313C0.00597943 29.9726 0.168343 30.6193 0.473864 31.1849C0.779385 31.7504 1.21671 32.2137 1.73964 32.526C2.26679 32.8431 2.86023 32.9992 3.4594 32.9784C4.05858 32.9575 4.64205 32.7605 5.15032 32.4073L15.7123 25.0513H8.80567L5.82281 12.688ZM5.937 25.0546C5.63854 25.0499 5.34797 24.9472 5.10185 24.7596C4.85573 24.5719 4.66502 24.3076 4.55369 23.9999C4.44237 23.6922 4.41539 23.3547 4.47616 23.03C4.53693 22.7053 4.68272 22.4078 4.89522 22.1749C5.10772 21.9419 5.37744 21.784 5.67049 21.7209C5.96353 21.6578 6.26683 21.6924 6.54225 21.8203C6.81767 21.9481 7.05292 22.1636 7.21844 22.4396C7.38397 22.7156 7.47237 23.0398 7.47255 23.3715C7.47119 23.594 7.43039 23.8141 7.35249 24.0191C7.27458 24.2241 7.1611 24.4101 7.01851 24.5664C6.87592 24.7227 6.70702 24.8463 6.52145 24.93C6.33589 25.0138 6.13729 25.0561 5.937 25.0546V25.0546Z" fill="#FF2D55"/>
<path d="M53.6808 6.64307H47.3772V26.3373H51.7002V19.7996H53.8008C57.5925 19.7996 60.8999 17.7353 60.8999 13.0506C60.9046 8.17755 57.6403 6.64307 53.6808 6.64307ZM53.5871 16.0644H51.7039V10.3741H53.4663C55.5425 10.3741 56.7015 11.0623 56.7015 13.0475C56.6978 14.9807 55.6849 16.0644 53.5834 16.0644H53.5871Z" fill="white"/>
<path d="M67.2925 6.64307H62.9695V26.3373H74.2717V22.3668H67.2934L67.2925 6.64307Z" fill="white"/>
<path d="M98.1577 14.8589H98.064C97.5571 13.3244 95.1183 6.64307 95.1183 6.64307H90.5273L95.9362 19.3739V26.3373H100.234V19.3759L105.668 6.64513H101.153C101.153 6.64513 98.6646 13.3244 98.1577 14.8589Z" fill="white"/>
<path d="M112.177 22.3647L119.928 9.47467V6.64307H107.613V10.5594H114.615L106.864 23.4755V26.3373H120V22.3668L112.177 22.3647Z" fill="white"/>
<path d="M34.8746 6.64307L29.2961 26.3373H33.6903L37.3134 10.7114L41.0799 26.3373H45.6193L40.0399 6.64307H34.8746Z" fill="white"/>
<path d="M37.4588 22.0831C37.0816 22.089 36.7144 22.2187 36.4034 22.4559C36.0923 22.6931 35.8514 23.0271 35.7107 23.4161C35.5701 23.805 35.536 24.2314 35.6129 24.6418C35.6898 25.0521 35.8741 25.4281 36.1427 25.7224C36.4113 26.0166 36.7522 26.2161 37.1226 26.2957C37.493 26.3753 37.8762 26.3315 38.2243 26.1698C38.5723 26.008 38.8695 25.7356 39.0785 25.3867C39.2876 25.0378 39.3991 24.628 39.3992 24.2089C39.3974 23.9277 39.3459 23.6497 39.2474 23.3906C39.149 23.1316 39.0056 22.8967 38.8254 22.6993C38.6452 22.5019 38.4317 22.3458 38.1973 22.2401C37.9628 22.1344 37.7118 22.081 37.4588 22.0831V22.0831Z" fill="white"/>
<path d="M81.8861 6.64307L76.3086 26.3373H80.7037L84.3259 10.7114L88.0923 26.3373H92.6327L87.0543 6.64618L81.8861 6.64307Z" fill="white"/>
<path d="M84.4712 22.0831C84.094 22.0888 83.7267 22.2184 83.4155 22.4554C83.1044 22.6925 82.8632 23.0265 82.7224 23.4154C82.5816 23.8043 82.5475 24.2307 82.6242 24.6412C82.701 25.0516 82.8853 25.4276 83.1538 25.722C83.4224 26.0164 83.7634 26.216 84.1337 26.2957C84.5041 26.3754 84.8874 26.3316 85.2355 26.1699C85.5836 26.0082 85.8809 25.7357 86.0899 25.3868C86.299 25.0379 86.4106 24.6281 86.4106 24.2089C86.4091 23.9278 86.3576 23.6497 86.2592 23.3907C86.1609 23.1317 86.0176 22.8968 85.8374 22.6993C85.6573 22.5019 85.4439 22.3459 85.2095 22.2401C84.9751 22.1344 84.7242 22.081 84.4712 22.0831Z" fill="white"/>
</svg>
