<svg width="24" height="25" viewBox="0 0 24 25" fill="none" xmlns="http://www.w3.org/2000/svg">
<path d="M15 2.75001C15.7023 2.74992 16.3922 2.93474 17.0004 3.28587C17.6086 3.637 18.1137 4.14207 18.4647 4.7503C18.8158 5.35853 19.0006 6.04847 19.0005 6.75075C19.0003 7.45304 18.8153 8.14291 18.464 8.75101L23 8.75001V10.75H21V20.75C21 21.0152 20.8946 21.2696 20.7071 21.4571C20.5196 21.6446 20.2652 21.75 20 21.75H4C3.73478 21.75 3.48043 21.6446 3.29289 21.4571C3.10536 21.2696 3 21.0152 3 20.75V10.75H1V8.75001L5.536 8.75101C5.03986 7.89189 4.88069 6.87906 5.08938 5.90918C5.29808 4.9393 5.85975 4.08157 6.66533 3.50256C7.47092 2.92354 8.46293 2.66456 9.44875 2.77588C10.4346 2.88721 11.3438 3.36091 12 4.10501C12.3746 3.67839 12.8361 3.33678 13.3535 3.10308C13.8709 2.86939 14.4323 2.74901 15 2.75001V2.75001ZM13 10.75H11V20.75H13V10.75ZM9 4.75001C8.48102 4.74768 7.98145 4.94719 7.60685 5.30639C7.23224 5.66558 7.01193 6.15632 6.99246 6.67495C6.97299 7.19357 7.15588 7.69945 7.50249 8.08572C7.84911 8.472 8.3323 8.7084 8.85 8.74501L9 8.75001H11V6.75001C11 6.27207 10.8289 5.80992 10.5176 5.44726C10.2063 5.08461 9.77542 4.84541 9.303 4.77301L9.149 4.75501L9 4.75001ZM15 4.75001C14.4954 4.74985 14.0094 4.94041 13.6395 5.2835C13.2695 5.62659 13.0428 6.09685 13.005 6.60001L13 6.75001V8.75001H15C15.5046 8.75017 15.9906 8.5596 16.3605 8.21651C16.7305 7.87342 16.9572 7.40316 16.995 6.90001L17 6.75001C17 6.21957 16.7893 5.71087 16.4142 5.33579C16.0391 4.96072 15.5304 4.75001 15 4.75001V4.75001Z" fill="white"/>
</svg>
