<svg width="24" height="25" viewBox="0 0 24 25" fill="none" xmlns="http://www.w3.org/2000/svg">
<path d="M1.66797 4.993C1.6698 4.73038 1.77487 4.47902 1.96048 4.29322C2.14609 4.10742 2.39735 4.00209 2.65997 4H20.676C21.224 4 21.668 4.445 21.668 4.993V21.007C21.6661 21.2696 21.5611 21.521 21.3755 21.7068C21.1898 21.8926 20.9386 21.9979 20.676 22H2.65997C2.39678 21.9997 2.14447 21.895 1.95846 21.7088C1.77245 21.5226 1.66797 21.2702 1.66797 21.007V4.993ZM11.668 13.171C11.0676 12.9587 10.4152 12.943 9.80532 13.1261C9.19541 13.3092 8.65959 13.6817 8.27541 14.1895C7.89123 14.6974 7.67862 15.3143 7.66836 15.9511C7.65809 16.5878 7.8507 17.2113 8.21831 17.7312C8.58592 18.2512 9.10946 18.6407 9.71315 18.8434C10.3168 19.0461 10.9694 19.0514 11.5763 18.8586C12.1832 18.6658 12.713 18.2849 13.0891 17.771C13.4651 17.2571 13.6678 16.6368 13.668 16V8.999H16.668V7H11.668V13.17V13.171Z" fill="white"/>
</svg>
