<svg width="30" height="30" viewBox="0 0 30 30" fill="none" xmlns="http://www.w3.org/2000/svg">
<path d="M9.8161 24.2632H10.4161V23.7593L9.91968 23.6722L9.8161 24.2632ZM11.5232 26.961L11.0989 26.5367L11.0989 26.5367L11.5232 26.961ZM13.7652 24.719L13.341 24.2947L13.341 24.2947L13.7652 24.719ZM13.971 24.4264V23.8264H13.5873L13.4263 24.1747L13.971 24.4264ZM1.45938 13.5853C1.45938 7.92926 6.04449 3.34414 11.7005 3.34414V2.14414C5.38175 2.14414 0.259375 7.26652 0.259375 13.5853H1.45938ZM9.91968 23.6722C5.11263 22.8297 1.45938 18.6335 1.45938 13.5853H0.259375C0.259375 19.2264 4.34132 23.9128 9.71252 24.8542L9.91968 23.6722ZM10.4161 26.2539V24.2632H9.2161V26.2539H10.4161ZM11.0989 26.5367C10.847 26.7887 10.4161 26.6102 10.4161 26.2539H9.2161C9.2161 27.6793 10.9395 28.3932 11.9475 27.3853L11.0989 26.5367ZM13.341 24.2947L11.0989 26.5367L11.9475 27.3853L14.1895 25.1432L13.341 24.2947ZM13.4263 24.1747C13.4084 24.2135 13.3815 24.2542 13.341 24.2947L14.1895 25.1432C14.3288 25.004 14.4378 24.8467 14.5157 24.6781L13.4263 24.1747ZM18.2995 23.8264H13.971V25.0264H18.2995V23.8264ZM28.5406 13.5853C28.5406 19.2413 23.9555 23.8264 18.2995 23.8264V25.0264C24.6182 25.0264 29.7406 19.9041 29.7406 13.5853H28.5406ZM18.2995 3.34414C23.9555 3.34414 28.5406 7.92926 28.5406 13.5853H29.7406C29.7406 7.26652 24.6182 2.14414 18.2995 2.14414V3.34414ZM11.7005 3.34414H18.2995V2.14414H11.7005V3.34414Z" fill="white"/>
<rect x="7.46094" y="11.2285" width="14.1406" height="1.13125" rx="0.565625" fill="white"/>
<rect x="7.46094" y="15" width="10.3698" height="1.13125" rx="0.565625" fill="white"/>
</svg>
