<svg width="24" height="24" viewBox="0 0 24 24" fill="none" xmlns="http://www.w3.org/2000/svg">
<path d="M21.5 11.9999C21.5012 10.5919 21.1889 9.20136 20.5856 7.92917C20.0613 6.82329 19.3285 5.83098 18.4294 5.00577L19.137 4.29812C20.1409 5.2266 20.9545 6.34373 21.5303 7.58731C22.1706 8.97003 22.5015 10.4758 22.5 11.9995V12C22.5 14.905 21.321 17.5338 19.4144 19.4353L18.7079 18.7288C19.53 17.9106 20.196 16.9474 20.6715 15.8862C21.2192 14.6638 21.5015 13.3393 21.5 11.9999ZM21.5 11.9999C21.5 12.0001 21.5 12.0003 21.5 12.0005L21 12L21.5 11.9994C21.5 11.9996 21.5 11.9997 21.5 11.9999ZM17.5 12V11.9996C17.5007 11.1378 17.2986 10.2878 16.9099 9.51863C16.5856 8.87685 16.1391 8.30628 15.5969 7.83825L14.8868 8.54831C15.8728 9.37319 16.4999 10.6132 16.5 11.9996C16.5 11.9997 16.5 11.9999 16.5 12H16H17.5ZM17.5 12C17.5 13.5239 16.8808 14.9026 15.8785 15.8994M17.5 12H18C18 13.842 17.17 15.49 15.863 16.591L16.2166 16.2375L15.8785 15.8994M15.8785 15.8994L15.1719 15.1928L15.8785 15.8994ZM12 19.945V4.05502C12.0001 3.9603 11.9732 3.86751 11.9226 3.78745C11.872 3.7074 11.7996 3.64337 11.714 3.60282C11.6284 3.56227 11.5331 3.54687 11.4391 3.55841C11.3451 3.56996 11.2563 3.60797 11.183 3.66802L12 19.945ZM12 19.945C12.0001 20.0397 11.9732 20.1325 11.9226 20.2126C11.872 20.2926 11.7996 20.3567 11.714 20.3972C11.6284 20.4378 11.5331 20.4532 11.4391 20.4416C11.3451 20.4301 11.2563 20.3921 11.183 20.332L12 19.945ZM5.889 8.50002H6.0675L6.20564 8.38698L11.4996 4.05498L11.5 4.05469V4.05502V19.945V19.9454L11.4997 19.9451L6.20668 15.6131L6.06853 15.5H5.89H5.889H2C1.86739 15.5 1.74021 15.4473 1.64645 15.3536C1.55268 15.2598 1.5 15.1326 1.5 15V9.00002C1.5 8.86741 1.55268 8.74024 1.64645 8.64647C1.74021 8.5527 1.86739 8.50002 2 8.50002H5.889Z" fill="white" stroke="white"/>
</svg>
