<svg width="24" height="24" viewBox="0 0 24 24" fill="none" xmlns="http://www.w3.org/2000/svg">
<path d="M10.2853 8.5627C9.14384 8.5627 8.21855 7.63741 8.21855 6.496C8.21855 5.35459 9.14384 4.4293 10.2853 4.4293C11.4267 4.4293 12.352 5.35459 12.352 6.496C12.352 7.63741 11.4267 8.5627 10.2853 8.5627Z" stroke="white" stroke-width="1.2" stroke-linecap="round" stroke-linejoin="round"/>
<path d="M2.53537 15.1309H1.1995M10.9999 15.1309H10.187H8.28613M7.39694 6.8125H0.999935M15.1777 6.8125H13.3038" stroke="white" stroke-width="1.3" stroke-linecap="square" stroke-linejoin="round"/>
<path d="M5.66592 17.2346C6.80733 17.2346 7.73262 16.3093 7.73262 15.1679C7.73262 14.0265 6.80733 13.1012 5.66592 13.1012C4.52451 13.1012 3.59922 14.0265 3.59922 15.1679C3.59922 16.3093 4.52451 17.2346 5.66592 17.2346Z" stroke="white" stroke-width="1.2" stroke-linecap="round" stroke-linejoin="round"/>
<path d="M16.8481 19C16.0506 19 15.3766 18.7181 14.8259 18.1542C14.2753 17.5903 14 16.9 14 16.0833C14 15.2667 14.2753 14.5764 14.8259 14.0125C15.3766 13.4486 16.0506 13.1667 16.8481 13.1667C17.2025 13.1667 17.5222 13.2185 17.807 13.3222C18.0918 13.4259 18.3418 13.5685 18.557 13.75V5H23V7.625H19.6962V16.0833C19.6962 16.9 19.4209 17.5903 18.8703 18.1542C18.3196 18.7181 17.6456 19 16.8481 19Z" fill="white"/>
</svg>
